<svg width="300" height="100" viewBox="0 0 300 100" fill="none" xmlns="http://www.w3.org/2000/svg">
<path d="M74.3885 42.4761H46.0609L21.2482 67.2391L35.412 81.3894L74.3885 42.4761Z" fill="#FFF275"/>
<path d="M14.1638 60.1648L0 46.0145L46.0584 0H74.3859L14.1638 60.1648Z" fill="#021F40"/>
<path d="M35.4108 81.3909L46.0596 92.0036H74.3872L49.6006 67.2406L35.4108 81.3909Z" fill="#F25D50"/>
<path d="M35.4108 81.3909L56.4482 74.1337L49.6006 67.2406L35.4108 81.3909Z" fill="url(#paint0_linear_162_9682)"/>
<path d="M35.4423 53.0646L21.2662 67.2272L35.4423 81.3898L49.6184 67.2272L35.4423 53.0646Z" fill="#FFD648"/>
<path d="M128.29 29.9133H105.795V53.5579H98.713V0H131.935V5.77457H105.795V24.1388H128.29V29.9133Z" fill="white"/>
<path d="M145.475 53.5579H138.653V0H145.475V53.5579Z" fill="white"/>
<path d="M179.687 49.6305C177.032 52.7519 173.152 54.3126 168.023 54.3126C163.779 54.3126 160.551 53.09 158.312 50.6189C156.098 48.1478 154.953 44.5062 154.953 39.668V13.7605H161.774V39.486C161.774 45.5207 164.222 48.538 169.143 48.538C174.35 48.538 177.813 46.6131 179.531 42.7374V13.7605H186.353V53.5582H179.87L179.713 49.6305H179.687Z" fill="white"/>
<path d="M204.626 4.13635V13.7867H212.072V19.041H204.626V43.752C204.626 45.3387 204.964 46.5352 205.615 47.3416C206.266 48.148 207.412 48.5381 209 48.5381C209.781 48.5381 210.875 48.3821 212.229 48.0959V53.5844C210.432 54.0786 208.688 54.3127 206.995 54.3127C203.949 54.3127 201.658 53.4023 200.122 51.5555C198.586 49.7087 197.804 47.1075 197.804 43.726V19.015H190.54V13.7606H197.804V4.13635H204.626Z" fill="white"/>
<path d="M227.985 4.13635V13.7867H235.431V19.041H227.985V43.752C227.985 45.3387 228.323 46.5352 228.974 47.3416C229.625 48.148 230.771 48.5381 232.359 48.5381C233.14 48.5381 234.233 48.3821 235.587 48.0959V53.5844C233.791 54.0786 232.046 54.3127 230.354 54.3127C227.308 54.3127 225.017 53.4023 223.48 51.5555C221.944 49.7087 221.163 47.1075 221.163 43.726V19.015H213.899V13.7606H221.163V4.13635H227.985Z" fill="white"/>
<path d="M258.605 54.3127C253.215 54.3127 248.815 52.544 245.43 49.0064C242.045 45.4688 240.353 40.7347 240.353 34.778V33.5295C240.353 29.5757 241.108 26.0642 242.618 22.9428C244.128 19.8474 246.237 17.4023 248.945 15.6595C251.653 13.9167 254.595 13.0323 257.771 13.0323C262.953 13.0323 266.988 14.7491 269.852 18.1566C272.716 21.5642 274.148 26.4543 274.148 32.8012V35.6364H247.149C247.253 39.5642 248.398 42.7376 250.585 45.1567C252.772 47.5757 255.584 48.7723 258.969 48.7723C261.364 48.7723 263.421 48.2781 265.088 47.2896C266.754 46.3012 268.212 45.0006 269.462 43.3879L273.628 46.6133C270.295 51.7376 265.27 54.3127 258.605 54.3127ZM257.771 18.6248C255.012 18.6248 252.72 19.6133 250.846 21.6162C248.971 23.6191 247.825 26.4283 247.383 30.0179H267.353V29.4977C267.144 26.0381 266.233 23.359 264.567 21.4601C262.901 19.5613 260.635 18.5988 257.797 18.5988L257.771 18.6248Z" fill="white"/>
<path d="M300 19.8734C298.959 19.6913 297.839 19.6133 296.641 19.6133C292.163 19.6133 289.143 21.5121 287.555 25.3098V53.5584H280.733V13.7607H287.372L287.477 18.3647C289.716 14.8011 292.866 13.0323 296.98 13.0323C298.308 13.0323 299.323 13.2144 300 13.5526V19.8734Z" fill="white"/>
<path d="M111.783 79.908V79.8039C112.799 79.3617 113.58 78.6854 114.179 77.827C114.777 76.9687 115.064 75.9282 115.064 74.7057C115.064 72.9369 114.413 71.4542 113.085 70.2837C111.757 69.1132 110.143 68.5149 108.19 68.5149H98.713V91.9513H108.737C110.768 91.9513 112.486 91.3011 113.84 90.0265C115.194 88.7519 115.871 87.1652 115.871 85.2924C115.871 83.9918 115.48 82.8473 114.725 81.8849C113.97 80.9224 112.981 80.2461 111.757 79.882L111.783 79.908ZM107.617 72.2606C108.529 72.2606 109.31 72.5727 109.909 73.171C110.507 73.7692 110.82 74.4976 110.82 75.3559C110.82 76.2143 110.507 76.9426 109.883 77.5409C109.258 78.1392 108.477 78.4513 107.513 78.4513H103.087V72.2866H107.617V72.2606ZM110.481 87.3733C109.805 88.0236 108.997 88.3617 108.06 88.3617H103.087V81.7028H107.93C108.893 81.7028 109.726 82.0149 110.429 82.6392C111.132 83.2635 111.471 84.0438 111.471 85.0062C111.471 85.9687 111.132 86.749 110.481 87.3993V87.3733Z" fill="white"/>
<path d="M126.599 74.6279C124.074 74.6279 122.043 75.4863 120.429 77.1771C118.814 78.8678 118.033 81.0008 118.033 83.5759C118.033 86.1511 118.841 88.336 120.429 90.0008C122.017 91.6655 124.126 92.5239 126.703 92.5239C127.953 92.5239 129.021 92.3938 129.88 92.1337C130.739 91.8736 131.546 91.4574 132.275 90.9372C133.004 90.417 133.733 89.6106 134.436 88.5181L131.65 86.5933C131.13 87.2956 130.661 87.7898 130.27 88.1019C129.854 88.4141 129.411 88.6742 128.917 88.8563C128.422 89.0384 127.823 89.1424 127.146 89.1424C125.688 89.1424 124.49 88.6222 123.553 87.6077C122.798 86.7753 122.381 85.7089 122.225 84.4083H134.853V82.6135C134.853 80.2985 134.072 78.3996 132.536 76.8909C131 75.3823 128.995 74.6279 126.573 74.6279H126.599ZM122.355 81.9372C122.538 80.9748 122.876 80.1684 123.397 79.5441C124.204 78.5817 125.271 78.1135 126.599 78.1135C127.823 78.1135 128.812 78.4776 129.541 79.206C130.297 79.9343 130.687 80.8447 130.765 81.9632H122.355V81.9372Z" fill="white"/>
<path d="M142.298 68.541H137.95V91.9775H142.298V68.541Z" fill="white"/>
<path d="M158.675 77.2291H158.571C157.998 76.4227 157.243 75.7724 156.306 75.3042C155.369 74.836 154.327 74.6279 153.208 74.6279C150.943 74.6279 149.068 75.4343 147.558 77.047C146.048 78.6597 145.293 80.7667 145.293 83.4198C145.293 86.073 146.022 88.206 147.48 89.7927C148.938 91.3794 150.786 92.1597 153.052 92.1597C154.197 92.1597 155.239 91.9256 156.176 91.4834C157.113 91.0412 157.894 90.391 158.493 89.5586H158.597V91.2754C158.597 92.836 158.207 94.0326 157.4 94.891C156.593 95.7493 155.421 96.1915 153.911 96.1915C153.312 96.1915 152.765 96.1135 152.244 95.9314C151.724 95.7493 151.255 95.5152 150.838 95.1771C150.422 94.8389 149.927 94.2147 149.354 93.3043L145.944 95.047C146.777 96.3996 147.558 97.3621 148.313 97.9083C149.068 98.4545 149.901 98.8968 150.838 99.1829C151.776 99.469 152.817 99.6251 153.989 99.6251C156.749 99.6251 158.936 98.8968 160.498 97.4141C162.086 95.9574 162.867 93.8505 162.867 91.0933V75.2002H158.701V77.2551L158.675 77.2291ZM157.374 87.0875C156.514 88.0499 155.447 88.5181 154.119 88.5181C152.791 88.5181 151.672 88.0759 150.812 87.1655C149.953 86.2551 149.537 85.0066 149.537 83.3678C149.537 81.7291 149.979 80.5586 150.838 79.6482C151.698 78.7378 152.791 78.2696 154.119 78.2696C155.447 78.2696 156.54 78.7378 157.374 79.6482C158.233 80.5846 158.649 81.8071 158.649 83.3418C158.649 84.8765 158.233 86.1511 157.374 87.1135V87.0875Z" fill="white"/>
<path d="M171.38 75.2013H167.032V91.9788H171.38V75.2013Z" fill="white"/>
<path d="M169.196 67.2404C168.493 67.2404 167.895 67.4745 167.374 67.9427C166.879 68.4109 166.619 69.0091 166.619 69.7375C166.619 70.4658 166.879 71.038 167.374 71.5323C167.869 72.0265 168.467 72.2606 169.196 72.2606C169.925 72.2606 170.524 72.0265 170.993 71.5323C171.462 71.038 171.722 70.4398 171.722 69.7375C171.722 69.0352 171.488 68.4109 170.993 67.9427C170.524 67.4745 169.899 67.2404 169.196 67.2404Z" fill="white"/>
<path d="M186.897 84.7996C186.897 86.0221 186.533 87.0366 185.778 87.895C185.022 88.7533 184.111 89.1695 182.992 89.1695C181.872 89.1695 181.143 88.8314 180.57 88.1811C179.997 87.5308 179.711 86.5944 179.711 85.3458V75.2013H175.363V86.0221C175.363 88.103 175.91 89.6897 177.003 90.8343C178.097 91.9788 179.633 92.525 181.612 92.525C182.809 92.525 183.903 92.2649 184.866 91.7447C185.83 91.2244 186.559 90.5221 187.027 89.6898H187.131V91.9788H191.219V75.2013H186.871V84.7996H186.897Z" fill="white"/>
<path d="M220.251 76.3706C219.236 75.2261 217.725 74.6538 215.747 74.6538C214.549 74.6538 213.455 74.9139 212.466 75.4342C211.477 75.9544 210.644 76.7347 209.993 77.7752C209.576 76.7868 208.925 76.0324 208.014 75.4862C207.103 74.9399 206.035 74.6538 204.863 74.6538C203.744 74.6538 202.702 74.9399 201.713 75.4862C200.724 76.0584 199.995 76.7607 199.526 77.6451H199.422V75.2H195.282V91.9775H199.63V82.6394C199.63 81.4168 199.969 80.3764 200.646 79.544C201.323 78.7116 202.182 78.2694 203.223 78.2694C204.265 78.2694 205.046 78.5816 205.566 79.2058C206.087 79.8301 206.348 80.7665 206.348 82.0151V91.9775H210.696V82.5873C210.696 81.3648 211.034 80.3503 211.737 79.518C212.44 78.6856 213.299 78.2694 214.315 78.2694C215.33 78.2694 216.189 78.5816 216.71 79.1798C217.231 79.8041 217.491 80.7145 217.491 81.9891V91.9775H221.813V81.2347C221.813 79.1278 221.292 77.5151 220.277 76.3706H220.251Z" fill="white"/>
<defs>
<linearGradient id="paint0_linear_162_9682" x1="39.5636" y1="84.1351" x2="50.1048" y2="73.5839" gradientUnits="userSpaceOnUse">
<stop stop-color="#2D2F78" stop-opacity="0.4"/>
<stop offset="1" stop-color="#2D2F78" stop-opacity="0"/>
</linearGradient>
</defs>
</svg>
