<svg width="391" height="62" viewBox="0 0 391 62" fill="none" xmlns="http://www.w3.org/2000/svg">
<path d="M43.5399 24.8636H26.9593L12.4362 39.3585L20.7264 47.6414L43.5399 24.8636Z" fill="#FFF275"/>
<path d="M8.29025 35.2172L0 26.9344L26.9586 0H43.5391L8.29025 35.2172Z" fill="#021F40"/>
<path d="M20.7214 47.6422L26.9544 53.8543H43.5349L29.0269 39.3594L20.7214 47.6422Z" fill="#F25D50"/>
<path d="M20.7214 47.6422L33.0349 43.3942L29.0269 39.3594L20.7214 47.6422Z" fill="url(#paint0_linear_162_9309)"/>
<path d="M20.7428 31.0611L12.4454 39.3511L20.7428 47.6412L29.0402 39.3511L20.7428 31.0611Z" fill="#FFD648"/>
<path d="M87.376 30.6609H65.0716V54.106H58.0499V1H90.9902V6.72585H65.0716V24.9351H87.376V30.6609Z" fill="#021F40"/>
<path d="M104.417 54.106H97.6537V1H104.417V54.106Z" fill="#021F40"/>
<path d="M138.333 50.2123C135.7 53.3073 131.853 54.8549 126.768 54.8549C122.56 54.8549 119.359 53.6426 117.139 51.1924C114.944 48.7421 113.809 45.1312 113.809 40.3339V14.645H120.572V40.1534C120.572 46.1371 122.999 49.129 127.878 49.129C133.041 49.129 136.474 47.2204 138.178 43.3774V14.645H144.942V54.1069H138.514L138.359 50.2123H138.333Z" fill="#021F40"/>
<path d="M163.069 5.10104V14.6699H170.453V19.8799H163.069V44.3824C163.069 45.9557 163.405 47.1422 164.05 47.9417C164.696 48.7413 165.832 49.1282 167.406 49.1282C168.181 49.1282 169.265 48.9734 170.607 48.6897V54.1319C168.826 54.6219 167.097 54.854 165.419 54.854C162.398 54.854 160.126 53.9513 158.603 52.1201C157.08 50.2888 156.306 47.7096 156.306 44.3566V19.8541H149.103V14.6441H156.306V5.10104H163.069Z" fill="#021F40"/>
<path d="M186.224 5.10104V14.6699H193.607V19.8799H186.224V44.3824C186.224 45.9557 186.56 47.1422 187.205 47.9417C187.85 48.7413 188.986 49.1282 190.561 49.1282C191.335 49.1282 192.42 48.9734 193.762 48.6897V54.1319C191.981 54.6219 190.251 54.854 188.573 54.854C185.553 54.854 183.281 53.9513 181.758 52.1201C180.235 50.2888 179.46 47.7096 179.46 44.3566V19.8541H172.258V14.6441H179.46V5.10104H186.224Z" fill="#021F40"/>
<path d="M216.579 54.8545C211.235 54.8545 206.872 53.1006 203.516 49.5929C200.16 46.0852 198.482 41.391 198.482 35.4846V34.2466C198.482 30.3262 199.231 26.8442 200.728 23.7492C202.225 20.6799 204.316 18.2555 207.001 16.5274C209.686 14.7993 212.603 13.9224 215.752 13.9224C220.89 13.9224 224.891 15.6247 227.731 19.0034C230.57 22.3822 231.99 27.2311 231.99 33.5244V36.3357H205.22C205.323 40.2304 206.459 43.377 208.627 45.7757C210.796 48.1743 213.584 49.3608 216.94 49.3608C219.315 49.3608 221.354 48.8707 223.007 47.8906C224.659 46.9105 226.104 45.6209 227.343 44.0218L231.474 47.22C228.17 52.3011 223.187 54.8545 216.579 54.8545ZM215.752 19.4677C213.016 19.4677 210.744 20.4478 208.886 22.4338C207.027 24.4198 205.891 27.2053 205.452 30.7646H225.252V30.2488C225.046 26.8185 224.142 24.1619 222.49 22.279C220.838 20.3962 218.592 19.4419 215.778 19.4419L215.752 19.4677Z" fill="#021F40"/>
<path d="M257.623 20.7057C256.59 20.5252 255.48 20.4478 254.293 20.4478C249.853 20.4478 246.858 22.3306 245.283 26.0963V54.1065H238.52V14.6446H245.103L245.206 19.2098C247.426 15.6763 250.55 13.9224 254.629 13.9224C255.945 13.9224 256.952 14.1029 257.623 14.4382V20.7057Z" fill="#021F40"/>
<path d="M281.472 41.5604V41.4572C282.479 41.0188 283.254 40.3482 283.847 39.497C284.441 38.6459 284.725 37.6142 284.725 36.402C284.725 34.6481 284.08 33.178 282.763 32.0173C281.447 30.8567 279.846 30.2635 277.91 30.2635H268.513V53.5022H278.452C280.466 53.5022 282.169 52.8574 283.512 51.5935C284.854 50.3297 285.525 48.7564 285.525 46.8994C285.525 45.6098 285.138 44.4749 284.39 43.5206C283.641 42.5663 282.66 41.8957 281.447 41.5346L281.472 41.5604ZM277.342 33.9775C278.246 33.9775 279.02 34.287 279.614 34.8802C280.208 35.4735 280.517 36.1956 280.517 37.0468C280.517 37.8979 280.208 38.6201 279.588 39.2133C278.968 39.8065 278.194 40.116 277.239 40.116H272.85V34.0033H277.342V33.9775ZM280.182 48.9627C279.51 49.6075 278.71 49.9428 277.781 49.9428H272.85V43.3401H277.652C278.607 43.3401 279.433 43.6496 280.13 44.2686C280.827 44.8876 281.163 45.6614 281.163 46.6157C281.163 47.57 280.827 48.3437 280.182 48.9885V48.9627Z" fill="#021F40"/>
<path d="M296.157 36.3248C293.653 36.3248 291.639 37.1759 290.039 38.8524C288.438 40.5289 287.664 42.6438 287.664 45.1973C287.664 47.7507 288.464 49.9172 290.039 51.5679C291.614 53.2186 293.705 54.0697 296.26 54.0697C297.5 54.0697 298.558 53.9408 299.41 53.6829C300.262 53.4249 301.062 53.0123 301.785 52.4964C302.508 51.9806 303.231 51.181 303.928 50.0978L301.165 48.1891C300.649 48.8855 300.184 49.3756 299.797 49.6851C299.384 49.9946 298.945 50.2525 298.455 50.4331C297.964 50.6136 297.37 50.7168 296.699 50.7168C295.254 50.7168 294.066 50.2009 293.137 49.195C292.388 48.3697 291.975 47.3122 291.82 46.0226H304.341V44.2429C304.341 41.9474 303.566 40.0646 302.043 38.5687C300.52 37.0727 298.532 36.3248 296.131 36.3248H296.157ZM291.949 43.5724C292.13 42.618 292.466 41.8185 292.982 41.1995C293.782 40.2452 294.841 39.7809 296.157 39.7809C297.37 39.7809 298.351 40.142 299.074 40.8642C299.823 41.5864 300.21 42.4891 300.288 43.5981H291.949V43.5724Z" fill="#021F40"/>
<path d="M311.726 30.2899H307.414V53.5286H311.726V30.2899Z" fill="#021F40"/>
<path d="M327.961 38.904H327.858C327.29 38.1044 326.541 37.4596 325.612 36.9954C324.682 36.5311 323.65 36.3248 322.54 36.3248C320.294 36.3248 318.435 37.1243 316.938 38.7234C315.44 40.3225 314.692 42.4117 314.692 45.0425C314.692 47.6733 315.415 49.7883 316.86 51.3616C318.306 52.9349 320.139 53.7087 322.385 53.7087C323.521 53.7087 324.553 53.4765 325.483 53.0381C326.412 52.5996 327.186 51.9548 327.78 51.1294H327.883V52.8317C327.883 54.3793 327.496 55.5657 326.696 56.4168C325.896 57.268 324.734 57.7064 323.237 57.7064C322.643 57.7064 322.101 57.6291 321.584 57.4485C321.068 57.268 320.603 57.0358 320.19 56.7005C319.777 56.3652 319.287 55.7462 318.719 54.8435L315.337 56.5716C316.163 57.9128 316.938 58.8671 317.686 59.4087C318.435 59.9503 319.261 60.3888 320.19 60.6725C321.12 60.9562 322.152 61.111 323.314 61.111C326.05 61.111 328.219 60.3888 329.768 58.9187C331.343 57.4743 332.117 55.3851 332.117 52.6512V36.8922H327.987V38.9298L327.961 38.904ZM326.67 48.6792C325.818 49.6335 324.76 50.0978 323.443 50.0978C322.127 50.0978 321.017 49.6593 320.165 48.7566C319.313 47.8538 318.9 46.6158 318.9 44.9909C318.9 43.366 319.339 42.2054 320.19 41.3026C321.042 40.3999 322.127 39.9357 323.443 39.9357C324.76 39.9357 325.844 40.3999 326.67 41.3026C327.522 42.2312 327.935 43.4434 327.935 44.9651C327.935 46.4869 327.522 47.7507 326.67 48.705V48.6792Z" fill="#021F40"/>
<path d="M340.567 36.8933H336.256V53.5292H340.567V36.8933Z" fill="#021F40"/>
<path d="M338.396 29C337.699 29 337.105 29.2321 336.589 29.6964C336.098 30.1606 335.84 30.7539 335.84 31.476C335.84 32.1982 336.098 32.7656 336.589 33.2557C337.079 33.7457 337.673 33.9779 338.396 33.9779C339.119 33.9779 339.712 33.7457 340.177 33.2557C340.642 32.7656 340.9 32.1724 340.9 31.476C340.9 30.7797 340.667 30.1606 340.177 29.6964C339.712 29.2321 339.093 29 338.396 29Z" fill="#021F40"/>
<path d="M355.949 46.4106C355.949 47.6228 355.588 48.6287 354.839 49.4799C354.091 50.331 353.187 50.7437 352.077 50.7437C350.967 50.7437 350.244 50.4084 349.676 49.7636C349.108 49.1188 348.824 48.1903 348.824 46.9522V36.8933H344.513V47.6228C344.513 49.6862 345.055 51.2595 346.14 52.3944C347.224 53.5292 348.747 54.0709 350.709 54.0709C351.896 54.0709 352.981 53.8129 353.936 53.2971C354.891 52.7813 355.614 52.0849 356.079 51.2595H356.182V53.5292H360.235V36.8933H355.924V46.4106H355.949Z" fill="#021F40"/>
<path d="M389.022 38.0535C388.016 36.9187 386.518 36.3512 384.556 36.3512C383.369 36.3512 382.285 36.6091 381.304 37.125C380.323 37.6408 379.497 38.4146 378.851 39.4463C378.438 38.4662 377.793 37.7182 376.889 37.1766C375.986 36.6349 374.927 36.3512 373.766 36.3512C372.655 36.3512 371.623 36.6349 370.642 37.1766C369.661 37.744 368.938 38.4404 368.473 39.3173H368.37V36.8929H364.266V53.5288H368.577V44.2694C368.577 43.0572 368.912 42.0255 369.583 41.2001C370.255 40.3748 371.107 39.9363 372.139 39.9363C373.172 39.9363 373.946 40.2458 374.463 40.8648C374.979 41.4839 375.237 42.4124 375.237 43.6504V53.5288H379.548V44.2178C379.548 43.0056 379.884 41.9997 380.581 41.1743C381.278 40.349 382.13 39.9363 383.136 39.9363C384.143 39.9363 384.995 40.2458 385.511 40.8391C386.028 41.4581 386.286 42.3608 386.286 43.6246V53.5288H390.571V42.8766C390.571 40.7875 390.055 39.1884 389.048 38.0535H389.022Z" fill="#021F40"/>
<defs>
<linearGradient id="paint0_linear_162_9309" x1="23.1521" y1="49.2485" x2="29.3224" y2="43.0728" gradientUnits="userSpaceOnUse">
<stop stop-color="#2D2F78" stop-opacity="0.4"/>
<stop offset="1" stop-color="#2D2F78" stop-opacity="0"/>
</linearGradient>
</defs>
</svg>
