<?xml version="1.0" encoding="utf-8"?>
<!-- Generator: Adobe Illustrator 26.3.1, SVG Export Plug-In . SVG Version: 6.00 Build 0)  -->
<svg version="1.1" id="Layer_1" xmlns="http://www.w3.org/2000/svg" xmlns:xlink="http://www.w3.org/1999/xlink" x="0px" y="0px"
	 width="125.4px" height="131.5px" viewBox="0 0 125.4 131.5" style="enable-background:new 0 0 125.4 131.5;" xml:space="preserve"
	>
<style type="text/css">
	.st0{fill:#010101;}
</style>
<g>
	<path class="st0" d="M51.11,32.35c2.25,1.36,5.17,0.57,6.75-1.53c5.36-7.1,12.12-11.04,20.11-11.04c9.51,0,18.07,4.95,23.28,12.88
		c4.39,6.69,5.81,15.27,5.81,24.65c0,15.24-3.08,32.36-10.95,32.36c-3.37,0-5.85-3.66-6.93-7.12c-1.05-2.58-1.21-8.25-1.14-10.97
		V49.7c0-2.91-2.49-5.24-5.45-4.98c-2.63,0.23-4.55,2.6-4.55,5.24v24.77c0,1.88,0.12,3.67,0.35,5.38c0.31,2.26,0.06,4.6-0.97,6.63
		c-1.2,2.36-3.14,4.44-5.93,4.44c-7.16,0-10.44-8.5-10.44-15.37c0-11.34,0.91-18.44,3.46-27.13c0.82-2.79-0.9-5.72-3.81-6.31
		c-2.6-0.53-5.13,1.22-5.87,3.77c-2.76,9.47-3.79,17.55-3.79,29.67c0,11.65,7.81,24.22,20.44,24.22c5.29,0,9.5-2.46,12.55-6.23
		c0.02-0.02,0.05-0.02,0.07,0c2.97,3.3,6.91,5.16,11.5,5.16c5.03,0,21.45-3,21.45-41.64c0-11.27-3.12-21.49-8.56-29.77
		c-7.07-10.77-17.63-16.46-30.53-16.46c-11.25,0-21.03,4.21-28.3,13.99C47.93,27.43,48.55,30.8,51.11,32.35z"/>
	<path class="st0" d="M120.53,91.95c-2.58-0.45-5.02,1.34-5.73,3.86c-2.16,7.73-9.65,26.68-33.43,26.68
		c-16,0-26.71-8.37-32.76-23.52c-5.36-13.44-5.36-29.26-5.36-35.22V5.26c0-2.64-1.92-5.01-4.55-5.24C35.74-0.24,33.26,2.09,33.26,5
		v39.17c0,0.04-0.05,0.06-0.08,0.04c-3.17-2.87-7.02-4.41-11.21-4.41C8.83,39.79-0.7,52.65-0.7,70.36c0,6.43,1.68,13.38,4.5,18.61
		c3.91,7.24,9.89,11.23,16.86,11.23c6.17,0,10.94-3.24,14.4-7.89c0.03-0.03,0.08-0.02,0.09,0.02l0.62-1.81
		c7.05,33.17,27.73,40.98,45.61,40.98c21.46,0,37.59-12.93,43.15-33.3C125.29,95.37,123.48,92.46,120.53,91.95z M20.66,91.18
		c-7.41,0-11.36-12.51-11.36-20.82c0-11.73,5.45-21.69,12.67-21.69c6.77,0,10.8,9.43,10.8,21.32C32.77,82.2,28.15,91.18,20.66,91.18
		z"/>
</g>
</svg>
